<?xml version="1.0" encoding="UTF-8"?>
<!DOCTYPE svg PUBLIC "-//W3C//DTD SVG 1.1//EN" "http://www.w3.org/Graphics/SVG/1.1/DTD/svg11.dtd">
<!-- Creator: CorelDRAW X8 -->
<svg xmlns="http://www.w3.org/2000/svg" xml:space="preserve" width="30px" height="30px" version="1.1" style="shape-rendering:geometricPrecision; text-rendering:geometricPrecision; image-rendering:optimizeQuality; fill-rule:evenodd; clip-rule:evenodd"
viewBox="0 0 387 246"
 xmlns:xlink="http://www.w3.org/1999/xlink">
 <defs>
  <style type="text/css">
   <![CDATA[
    .fil0 {fill:#454545;fill-rule:nonzero}
   ]]>
  </style>
 </defs>
 <g id="Слой_x0020_1">
  <metadata id="CorelCorpID_0Corel-Layer"/>
  <path class="fil0" d="M124 195l-72 0 0 -61 68 0c20,0 27,17 27,29 0,11 -1,32 -23,32zm127 -155l97 0 0 -24 -97 0 0 24zm49 58c38,0 37,36 37,36l-74 0c0,0 -1,-36 37,-36zm3 108c-43,0 -40,-42 -40,-42l123 0c0,-77 -39,-103 -86,-103 -47,0 -86,40 -86,88 0,48 22,95 90,95 67,0 82,-59 82,-59l-45 0c0,0 -4,21 -38,21zm-251 -163l58 0c23,0 27,17 27,24 0,6 -2,28 -22,28l-63 0 0 -52zm102 66c17,-8 34,-14 34,-52 0,-38 -31,-54 -54,-54l-133 0 0 235 116 0c60,0 81,-30 81,-71 0,-42 -27,-58 -44,-58z"/>
 </g>
</svg>
