<?xml version="1.0" encoding="UTF-8"?>
<!DOCTYPE svg PUBLIC "-//W3C//DTD SVG 1.1//EN" "http://www.w3.org/Graphics/SVG/1.1/DTD/svg11.dtd">
<!-- Creator: CorelDRAW X8 -->
<svg xmlns="http://www.w3.org/2000/svg" xml:space="preserve" width="30px" height="30px" version="1.1" style="shape-rendering:geometricPrecision; text-rendering:geometricPrecision; image-rendering:optimizeQuality; fill-rule:evenodd; clip-rule:evenodd"
viewBox="0 0 333 337"
 xmlns:xlink="http://www.w3.org/1999/xlink">
 <defs>
  <style type="text/css">
   <![CDATA[
    .fil0 {fill:#454545}
   ]]>
  </style>
 </defs>
 <g id="Слой_x0020_1">
  <metadata id="CorelCorpID_0Corel-Layer"/>
  <path class="fil0" d="M30 169c0,-45 0,-50 1,-67 0,-16 3,-25 5,-31 3,-8 7,-13 13,-19 6,-6 11,-9 19,-12 6,-2 14,-5 30,-6 18,-1 23,-1 67,-1 44,0 50,0 67,1 16,1 25,4 31,6 7,3 13,6 19,12 5,6 9,11 12,19 2,6 5,15 6,31 0,17 1,22 1,67 0,44 -1,49 -1,66 -1,16 -4,25 -6,31 -3,8 -7,13 -12,19 -6,6 -12,9 -19,12 -6,3 -15,5 -31,6 -17,1 -23,1 -67,1 -44,0 -49,0 -67,-1 -16,-1 -24,-3 -30,-6 -8,-3 -13,-6 -19,-12 -6,-6 -10,-11 -13,-19 -2,-6 -5,-15 -5,-31 -1,-17 -1,-22 -1,-66zm135 -85c-47,0 -85,38 -85,85 0,46 38,84 85,84 47,0 85,-38 85,-84 0,-47 -38,-85 -85,-85zm-55 85c0,-31 25,-55 55,-55 31,0 55,24 55,55 0,30 -24,55 -55,55 -30,0 -55,-25 -55,-55zm124 -89c0,11 8,20 19,20 11,0 20,-9 20,-20 0,-11 -9,-19 -20,-19 -11,0 -19,8 -19,19zm95 20c0,-17 -3,-29 -7,-40 -5,-10 -10,-20 -19,-29 -10,-9 -19,-15 -30,-19 -10,-4 -22,-7 -40,-8 -17,0 -23,-1 -68,-1 -45,0 -50,1 -68,1 -17,1 -30,4 -40,8 -11,4 -20,10 -29,19 -9,9 -15,19 -19,29 -4,11 -7,23 -8,40 -1,18 -1,24 -1,69 0,44 0,50 1,68 1,17 4,29 8,40 4,11 10,20 19,29 9,9 18,15 29,19 10,4 23,7 40,8 18,1 23,1 68,1 45,0 51,0 68,-1 18,-1 30,-4 40,-8 11,-4 20,-10 30,-19 9,-9 14,-18 19,-29 4,-11 7,-23 7,-40 1,-18 1,-24 1,-68 0,-45 0,-51 -1,-69z"/>
 </g>
</svg>
