<?xml version="1.0" encoding="UTF-8"?>
<!DOCTYPE svg PUBLIC "-//W3C//DTD SVG 1.1//EN" "http://www.w3.org/Graphics/SVG/1.1/DTD/svg11.dtd">
<!-- Creator: CorelDRAW X8 -->
<svg xmlns="http://www.w3.org/2000/svg" xml:space="preserve" width="30px" height="30px" version="1.1" style="shape-rendering:geometricPrecision; text-rendering:geometricPrecision; image-rendering:optimizeQuality; fill-rule:evenodd; clip-rule:evenodd"
viewBox="0 0 287 279"
 xmlns:xlink="http://www.w3.org/1999/xlink">
 <defs>
  <style type="text/css">
   <![CDATA[
    .fil0 {fill:#454545;fill-rule:nonzero}
   ]]>
  </style>
 </defs>
 <g id="Слой_x0020_1">
  <metadata id="CorelCorpID_0Corel-Layer"/>
  <path class="fil0" d="M285 275l-59 0 0 -107c0,-8 -1,-12 -6,-20 -4,-8 -12,-14 -25,-14 -10,0 -19,5 -26,13 -4,4 -5,8 -7,12l0 116 -61 0 0 -183 61 0 0 29c6,-9 16,-33 57,-33 45,0 66,37 66,80l0 107zm-248 -207c-19,0 -34,-15 -34,-32 0,-18 15,-32 34,-32 18,0 33,14 33,32 0,17 -15,32 -33,32zm31 207l-63 0 0 -183 63 0 0 183z"/>
 </g>
</svg>
