<?xml version="1.0" encoding="UTF-8"?>
<!DOCTYPE svg PUBLIC "-//W3C//DTD SVG 1.1//EN" "http://www.w3.org/Graphics/SVG/1.1/DTD/svg11.dtd">
<!-- Creator: CorelDRAW X8 -->
<svg xmlns="http://www.w3.org/2000/svg" xml:space="preserve" width="60px" height="60px" version="1.1" style="shape-rendering:geometricPrecision; text-rendering:geometricPrecision; image-rendering:optimizeQuality; fill-rule:evenodd; clip-rule:evenodd"
viewBox="0 0 1150 1133"
 xmlns:xlink="http://www.w3.org/1999/xlink">
 <defs>
  <style type="text/css">
   <![CDATA[
    .fil0 {fill:#fff}
   ]]>
  </style>
 </defs>
 <g id="Слой_x0020_1">
  <metadata id="CorelCorpID_0Corel-Layer"/>
  <path class="fil0" d="M1114 584c-10,37 -37,66 -70,79l-88 33 -293 109 -251 94 -250 -94 0 -296 -146 -84c-9,-5 -14,-15 -14,-25 0,-13 9,-25 21,-28l195 -52 0 -216 113 -31 54 202 111 -30 0 -216 102 -27 65 243 82 83 372 74c24,4 38,30 31,53l-34 129zm-952 548l250 -94 251 94 0 -233 -251 93 -250 -93 0 233zm229 -762c54,-15 105,-1 124,72 20,73 -18,110 -72,124 -54,15 -104,1 -124,-72 -20,-73 18,-110 72,-124zm221 -46c34,-9 66,-2 79,45 12,48 -12,69 -46,79 -34,9 -65,0 -78,-46 -12,-45 11,-68 45,-78z"/>
 </g>
</svg>

